<mxfile host="65bd71144e">
    <diagram id="c8vICnOnQsZnZs8cxOmF" name="ページ1">
        <mxGraphModel dx="1028" dy="878" grid="1" gridSize="10" guides="1" tooltips="1" connect="1" arrows="1" fold="1" page="1" pageScale="1" pageWidth="827" pageHeight="1169" math="0" shadow="0">
            <root>
                <mxCell id="0"/>
                <mxCell id="1" parent="0"/>
                <mxCell id="2" value="対戦（開始）" style="html=1;" vertex="1" parent="1">
                    <mxGeometry x="200" y="100" width="110" height="50" as="geometry"/>
                </mxCell>
                <mxCell id="3" value="盤面" style="html=1;" vertex="1" parent="1">
                    <mxGeometry x="500" y="190" width="110" height="50" as="geometry"/>
                </mxCell>
                <mxCell id="4" value="石" style="html=1;" vertex="1" parent="1">
                    <mxGeometry x="670" y="350" width="110" height="50" as="geometry"/>
                </mxCell>
                <mxCell id="6" value="プレイヤー" style="html=1;" vertex="1" parent="1">
                    <mxGeometry x="10" y="100" width="110" height="50" as="geometry"/>
                </mxCell>
                <mxCell id="8" style="edgeStyle=none;html=1;entryX=0.5;entryY=1;entryDx=0;entryDy=0;endArrow=none;endFill=0;dashed=1;" edge="1" parent="1" source="7" target="4">
                    <mxGeometry relative="1" as="geometry"/>
                </mxCell>
                <mxCell id="7" value="石の種類&lt;br&gt;・空&lt;br&gt;・白&lt;br&gt;・黒" style="shape=note;whiteSpace=wrap;html=1;backgroundOutline=1;darkOpacity=0.05;fillColor=#ffe6cc;strokeColor=#d79b00;" vertex="1" parent="1">
                    <mxGeometry x="655" y="460" width="115" height="90" as="geometry"/>
                </mxCell>
                <mxCell id="11" value="" style="endArrow=none;html=1;edgeStyle=orthogonalEdgeStyle;exitX=1;exitY=0.5;exitDx=0;exitDy=0;entryX=0;entryY=0.5;entryDx=0;entryDy=0;" edge="1" parent="1" source="6" target="2">
                    <mxGeometry relative="1" as="geometry">
                        <mxPoint x="460" y="460" as="sourcePoint"/>
                        <mxPoint x="230" y="125" as="targetPoint"/>
                    </mxGeometry>
                </mxCell>
                <mxCell id="12" value="1" style="edgeLabel;resizable=0;html=1;align=left;verticalAlign=bottom;" connectable="0" vertex="1" parent="11">
                    <mxGeometry x="-1" relative="1" as="geometry"/>
                </mxCell>
                <mxCell id="13" value="*" style="edgeLabel;resizable=0;html=1;align=right;verticalAlign=bottom;" connectable="0" vertex="1" parent="11">
                    <mxGeometry x="1" relative="1" as="geometry"/>
                </mxCell>
                <mxCell id="15" value="" style="endArrow=none;html=1;edgeStyle=orthogonalEdgeStyle;exitX=0.5;exitY=1;exitDx=0;exitDy=0;startArrow=none;entryX=0.5;entryY=0;entryDx=0;entryDy=0;" edge="1" parent="1" source="5" target="5">
                    <mxGeometry relative="1" as="geometry">
                        <mxPoint x="460" y="460" as="sourcePoint"/>
                        <mxPoint x="620" y="460" as="targetPoint"/>
                    </mxGeometry>
                </mxCell>
                <mxCell id="17" value="0..1" style="edgeLabel;resizable=0;html=1;align=right;verticalAlign=bottom;" connectable="0" vertex="1" parent="15">
                    <mxGeometry x="1" relative="1" as="geometry"/>
                </mxCell>
                <mxCell id="18" value="" style="endArrow=none;html=1;edgeStyle=orthogonalEdgeStyle;exitX=0.5;exitY=1;exitDx=0;exitDy=0;" edge="1" parent="1" source="2" target="5">
                    <mxGeometry relative="1" as="geometry">
                        <mxPoint x="255" y="150" as="sourcePoint"/>
                        <mxPoint x="620" y="460" as="targetPoint"/>
                    </mxGeometry>
                </mxCell>
                <mxCell id="5" value="対戦結果" style="html=1;" vertex="1" parent="1">
                    <mxGeometry x="200" y="260" width="110" height="50" as="geometry"/>
                </mxCell>
                <mxCell id="22" value="ターン" style="html=1;" vertex="1" parent="1">
                    <mxGeometry x="360" y="100" width="110" height="50" as="geometry"/>
                </mxCell>
                <mxCell id="23" value="" style="endArrow=none;html=1;edgeStyle=orthogonalEdgeStyle;exitX=1;exitY=0.5;exitDx=0;exitDy=0;entryX=0;entryY=0.5;entryDx=0;entryDy=0;" edge="1" parent="1" source="2" target="22">
                    <mxGeometry relative="1" as="geometry">
                        <mxPoint x="130" y="135" as="sourcePoint"/>
                        <mxPoint x="210" y="135" as="targetPoint"/>
                    </mxGeometry>
                </mxCell>
                <mxCell id="24" value="1" style="edgeLabel;resizable=0;html=1;align=left;verticalAlign=bottom;" connectable="0" vertex="1" parent="23">
                    <mxGeometry x="-1" relative="1" as="geometry"/>
                </mxCell>
                <mxCell id="25" value="*" style="edgeLabel;resizable=0;html=1;align=right;verticalAlign=bottom;" connectable="0" vertex="1" parent="23">
                    <mxGeometry x="1" relative="1" as="geometry"/>
                </mxCell>
                <mxCell id="26" value="" style="endArrow=none;html=1;edgeStyle=orthogonalEdgeStyle;exitX=1;exitY=1;exitDx=0;exitDy=0;entryX=0;entryY=0;entryDx=0;entryDy=0;" edge="1" parent="1" source="22" target="3">
                    <mxGeometry relative="1" as="geometry">
                        <mxPoint x="320" y="135" as="sourcePoint"/>
                        <mxPoint x="400" y="135" as="targetPoint"/>
                    </mxGeometry>
                </mxCell>
                <mxCell id="27" value="1" style="edgeLabel;resizable=0;html=1;align=left;verticalAlign=bottom;" connectable="0" vertex="1" parent="26">
                    <mxGeometry x="-1" relative="1" as="geometry"/>
                </mxCell>
                <mxCell id="28" value="1" style="edgeLabel;resizable=0;html=1;align=right;verticalAlign=bottom;" connectable="0" vertex="1" parent="26">
                    <mxGeometry x="1" relative="1" as="geometry"/>
                </mxCell>
                <mxCell id="30" value="マス目" style="html=1;" vertex="1" parent="1">
                    <mxGeometry x="670" y="190" width="110" height="50" as="geometry"/>
                </mxCell>
                <mxCell id="31" value="" style="endArrow=none;html=1;edgeStyle=orthogonalEdgeStyle;exitX=1;exitY=0.5;exitDx=0;exitDy=0;entryX=0;entryY=0.5;entryDx=0;entryDy=0;" edge="1" parent="1" source="3" target="30">
                    <mxGeometry relative="1" as="geometry">
                        <mxPoint x="320" y="135" as="sourcePoint"/>
                        <mxPoint x="370" y="135" as="targetPoint"/>
                    </mxGeometry>
                </mxCell>
                <mxCell id="32" value="1" style="edgeLabel;resizable=0;html=1;align=left;verticalAlign=bottom;" connectable="0" vertex="1" parent="31">
                    <mxGeometry x="-1" relative="1" as="geometry"/>
                </mxCell>
                <mxCell id="33" value="*" style="edgeLabel;resizable=0;html=1;align=right;verticalAlign=bottom;" connectable="0" vertex="1" parent="31">
                    <mxGeometry x="1" relative="1" as="geometry"/>
                </mxCell>
                <mxCell id="46" value="" style="endArrow=none;html=1;edgeStyle=orthogonalEdgeStyle;exitX=0.5;exitY=0;exitDx=0;exitDy=0;entryX=0.5;entryY=1;entryDx=0;entryDy=0;" edge="1" parent="1" source="4" target="30">
                    <mxGeometry relative="1" as="geometry">
                        <mxPoint x="620" y="225" as="sourcePoint"/>
                        <mxPoint x="680" y="225" as="targetPoint"/>
                    </mxGeometry>
                </mxCell>
                <mxCell id="47" value="1" style="edgeLabel;resizable=0;html=1;align=left;verticalAlign=bottom;" connectable="0" vertex="1" parent="46">
                    <mxGeometry x="-1" relative="1" as="geometry"/>
                </mxCell>
                <mxCell id="49" value="手" style="html=1;" vertex="1" parent="1">
                    <mxGeometry x="500" y="40" width="110" height="50" as="geometry"/>
                </mxCell>
                <mxCell id="50" value="" style="endArrow=none;html=1;edgeStyle=orthogonalEdgeStyle;exitX=0;exitY=0.5;exitDx=0;exitDy=0;entryX=1;entryY=0;entryDx=0;entryDy=0;" edge="1" parent="1" source="49" target="22">
                    <mxGeometry relative="1" as="geometry">
                        <mxPoint x="480" y="160" as="sourcePoint"/>
                        <mxPoint x="510" y="200" as="targetPoint"/>
                    </mxGeometry>
                </mxCell>
                <mxCell id="51" value="1" style="edgeLabel;resizable=0;html=1;align=left;verticalAlign=bottom;" connectable="0" vertex="1" parent="50">
                    <mxGeometry x="-1" relative="1" as="geometry"/>
                </mxCell>
                <mxCell id="52" value="1" style="edgeLabel;resizable=0;html=1;align=right;verticalAlign=bottom;" connectable="0" vertex="1" parent="50">
                    <mxGeometry x="1" relative="1" as="geometry"/>
                </mxCell>
            </root>
        </mxGraphModel>
    </diagram>
</mxfile>